<?xml version="1.0" encoding="utf-8"?>
<!-- Generator: Adobe Illustrator 19.0.0, SVG Export Plug-In . SVG Version: 6.00 Build 0)  -->
<svg version="1.1" id="Layer_1" xmlns="http://www.w3.org/2000/svg" xmlns:xlink="http://www.w3.org/1999/xlink" x="0px" y="0px"
	 viewBox="0 0 349 203" style="enable-background:new 0 0 349 203;" xml:space="preserve">
<style type="text/css">
	.st0{fill:#46CDCF;}
	.st1{fill:#ABEDD8;}
	.st2{fill:#3D84A8;}
	.st3{fill:#48466D;}
</style>
<g>
	<path class="st0" d="M136.5,34.5c10.7-11.5,28.1-14.5,42.9-10.8c5.1,1.2,10,4.4,15.4,3.1c10.5-2.1,21.7-2.2,31.8,1.7
		C236,32,244.2,39,249.1,47.8c3.1,5.9,4,14.2-1.1,19.2c-4.2,4.3-10.6,4.2-15.9,6c-3.8,1.2-5.8,5-8,8.1c-6,0-11.9,0.4-17.8,0.9
		c-1.6-4.6-2.9-9.5-6.2-13.2c-4.4-4.7-10.5-7.3-16.7-8.3c-5.6-0.9-11.2,0.1-16.7,0.9c-4.2-5.5-8.3-11.2-13.5-15.7
		C148.2,41.2,142.1,38.2,136.5,34.5z"/>
</g>
<g>
	<path class="st1" d="M119.8,39.9c6.8-2.1,13.8,0.1,19.6,3.7c8.7,4.9,16,12.2,21.2,20.8c1.4,1.8,2.9,5.2,5.7,4.1
		c7-1.8,14.6-2.9,21.5-0.4c5,1.8,9.7,5.5,11,10.8c1.5,7.4-0.6,15.6-6,20.9c-5.1,5.1-12.1,7.6-18.9,9.1c-8.8,2.1-18.1,0.6-26.8,3.2
		c-9.8,2.8-19.1,9.7-22.1,19.8c-1.5,4.7-0.3,10-2.6,14.5c-5.4,1.8-11.3,1.5-17,1.4c-9.9-0.1-19.4-5.1-25.6-12.7
		c-5.1-6.5-9.4-14.1-9.7-22.5c-1.2-11.1,1.5-22.9,8.6-31.7c2.3-3,5.6-5,7.8-8.2c1.7-3.8,2.1-8.1,4.4-11.6
		C97.6,50.8,107.8,42.5,119.8,39.9z"/>
</g>
<g>
	<path class="st2" d="M258.5,56.3c13.3,8.1,23.4,21.9,25.4,37.5c1,10.4,0.2,21.2-4.2,30.7c-6.6-4.6-14.3-7.2-22.3-7.9
		c-2.1-7.6-4.2-15.5-9.2-21.7c-3.8-5.2-9.6-8.3-14.9-11.6c3.9-7,13.2-6,18.5-11.4C256.2,67.9,257.2,61.7,258.5,56.3z"/>
</g>
<g>
	<path class="st3" d="M206.2,89.2c7.3-2.5,15.4-2,22.8-0.2c12.6,3.2,20.4,15.9,21.6,28.3c-4.8,3.2-10.1,6.5-12.4,12
		c-1.9,4.6-2.3,10.1-0.1,14.6c0.8,2,3.3,2.4,5,1.5c1.4-2.8,0.2-5.9,0.3-8.8c-0.6-5.6,3.9-10.3,8.8-12.2c7-2.7,14.8-0.3,20.9,3.5
		c2.6,1.8,5.7,4.2,5.5,7.7c-0.2,8-3,16-8.2,22c-5,5.9-11.7,10.1-18.7,13.4c-4.2,2-8.8,2.9-12.9,5.1c-3.2,1.8-2.3,6.2-2,9.3
		c0.8,6.1,6.2,9.8,10.9,13c-1.6,1.2-3.2,3-5.4,3c-5.8,0.8-11.6-1.2-16.5-4.2c-7.7-4.3-14.6-10.2-19.1-18c-2.6-4.6-3.8-9.8-5.3-14.8
		c-5.7,0.6-11.5,1.8-17.1,0c-3-0.8-6.1-2.5-9.2-1.2c-5.4,1.9-10.9,4.1-16.8,3.6c-11.8-0.6-21.5-9.1-27.5-18.7c-2.1-3.4-0.9-7.5,0-11
		c1.9-7.1,6.3-13.9,13.1-16.9c9.2-4.5,19.7-2.6,29.5-4.5c9.8-1.8,19.7-6,26.1-14C202.7,98,203.6,93.1,206.2,89.2z"/>
</g>
</svg>
